<mxfile host="65bd71144e">
    <diagram id="Ddquru1No6JqzLPKn0Kp" name="Page-1">
        <mxGraphModel dx="2276" dy="1574" grid="1" gridSize="10" guides="1" tooltips="1" connect="1" arrows="1" fold="1" page="1" pageScale="1" pageWidth="850" pageHeight="1100" math="0" shadow="0">
            <root>
                <mxCell id="0"/>
                <mxCell id="1" parent="0"/>
                <mxCell id="2" value="pictures" style="rounded=0;whiteSpace=wrap;html=1;fillColor=#60a917;fontColor=#ffffff;strokeColor=#2D7600;" vertex="1" parent="1">
                    <mxGeometry x="362" y="950" width="120" height="60" as="geometry"/>
                </mxCell>
                <mxCell id="3" value="blog" style="rounded=0;whiteSpace=wrap;html=1;fillColor=#60a917;fontColor=#ffffff;strokeColor=#2D7600;" vertex="1" parent="1">
                    <mxGeometry y="950" width="120" height="60" as="geometry"/>
                </mxCell>
                <mxCell id="4" value="index" style="rounded=0;whiteSpace=wrap;html=1;fillColor=#60a917;fontColor=#ffffff;strokeColor=#2D7600;" vertex="1" parent="1">
                    <mxGeometry x="182" y="950" width="120" height="60" as="geometry"/>
                </mxCell>
                <mxCell id="5" value="project" style="rounded=0;whiteSpace=wrap;html=1;fillColor=#60a917;fontColor=#ffffff;strokeColor=#2D7600;" vertex="1" parent="1">
                    <mxGeometry x="542" y="950" width="120" height="60" as="geometry"/>
                </mxCell>
                <mxCell id="6" value="" style="shape=flexArrow;endArrow=classic;startArrow=classic;html=1;width=11.538461538461538;startSize=5.3307692307692305;exitX=1;exitY=0.5;exitDx=0;exitDy=0;" edge="1" parent="1" source="3">
                    <mxGeometry width="100" height="100" relative="1" as="geometry">
                        <mxPoint x="141" y="980" as="sourcePoint"/>
                        <mxPoint x="182" y="980" as="targetPoint"/>
                        <Array as="points">
                            <mxPoint x="211" y="980"/>
                            <mxPoint x="182" y="980"/>
                        </Array>
                    </mxGeometry>
                </mxCell>
                <mxCell id="8" value="" style="shape=flexArrow;endArrow=classic;startArrow=classic;html=1;width=11.538461538461538;startSize=5.3307692307692305;exitX=1;exitY=0.5;exitDx=0;exitDy=0;" edge="1" parent="1">
                    <mxGeometry width="100" height="100" relative="1" as="geometry">
                        <mxPoint x="302" y="979.62" as="sourcePoint"/>
                        <mxPoint x="364" y="979.62" as="targetPoint"/>
                        <Array as="points">
                            <mxPoint x="393" y="979.62"/>
                            <mxPoint x="364" y="979.62"/>
                        </Array>
                    </mxGeometry>
                </mxCell>
                <mxCell id="9" value="" style="shape=flexArrow;endArrow=classic;startArrow=classic;html=1;width=11.538461538461538;startSize=5.3307692307692305;exitX=1;exitY=0.5;exitDx=0;exitDy=0;" edge="1" parent="1">
                    <mxGeometry width="100" height="100" relative="1" as="geometry">
                        <mxPoint x="482" y="979.58" as="sourcePoint"/>
                        <mxPoint x="544" y="979.58" as="targetPoint"/>
                        <Array as="points">
                            <mxPoint x="573" y="979.58"/>
                            <mxPoint x="544" y="979.58"/>
                        </Array>
                    </mxGeometry>
                </mxCell>
            </root>
        </mxGraphModel>
    </diagram>
</mxfile>